<mxfile host="Electron" agent="Mozilla/5.0 (Windows NT 10.0; Win64; x64) AppleWebKit/537.36 (KHTML, like Gecko) draw.io/26.0.16 Chrome/132.0.6834.196 Electron/34.2.0 Safari/537.36" version="26.0.16">
  <diagram name="PÃ¡gina-1" id="TFe1XBaBka_Admq06yIr">
    <mxGraphModel dx="1104" dy="508" grid="1" gridSize="10" guides="1" tooltips="1" connect="1" arrows="1" fold="1" page="1" pageScale="1" pageWidth="827" pageHeight="1169" math="0" shadow="0">
      <root>
        <mxCell id="0" />
        <mxCell id="1" parent="0" />
        <mxCell id="tn5ad1HzY3mQpz4RwJXk-27" style="edgeStyle=orthogonalEdgeStyle;rounded=0;orthogonalLoop=1;jettySize=auto;html=1;fontFamily=Helvetica;fontSize=12;fontColor=default;fontStyle=1;" parent="1" source="tn5ad1HzY3mQpz4RwJXk-2" target="tn5ad1HzY3mQpz4RwJXk-21" edge="1">
          <mxGeometry relative="1" as="geometry" />
        </mxCell>
        <mxCell id="tn5ad1HzY3mQpz4RwJXk-2" value="apigw:&lt;br&gt;&lt;span style=&quot;background-color: transparent; color: light-dark(rgb(35, 47, 62), rgb(189, 199, 212));&quot;&gt;FlowPost&lt;/span&gt;" style="sketch=0;points=[[0,0,0],[0.25,0,0],[0.5,0,0],[0.75,0,0],[1,0,0],[0,1,0],[0.25,1,0],[0.5,1,0],[0.75,1,0],[1,1,0],[0,0.25,0],[0,0.5,0],[0,0.75,0],[1,0.25,0],[1,0.5,0],[1,0.75,0]];outlineConnect=0;fontColor=#232F3E;fillColor=#8C4FFF;strokeColor=#ffffff;dashed=0;verticalLabelPosition=bottom;verticalAlign=top;align=center;html=1;fontSize=12;fontStyle=0;aspect=fixed;shape=mxgraph.aws4.resourceIcon;resIcon=mxgraph.aws4.api_gateway;" parent="1" vertex="1">
          <mxGeometry x="160" y="169" width="40" height="40" as="geometry" />
        </mxCell>
        <mxCell id="tn5ad1HzY3mQpz4RwJXk-26" style="edgeStyle=orthogonalEdgeStyle;rounded=0;orthogonalLoop=1;jettySize=auto;html=1;fontFamily=Helvetica;fontSize=12;fontColor=default;fontStyle=1;" parent="1" source="tn5ad1HzY3mQpz4RwJXk-3" target="tn5ad1HzY3mQpz4RwJXk-2" edge="1">
          <mxGeometry relative="1" as="geometry" />
        </mxCell>
        <mxCell id="tn5ad1HzY3mQpz4RwJXk-3" value="" style="aspect=fixed;sketch=0;html=1;dashed=0;whitespace=wrap;verticalLabelPosition=bottom;verticalAlign=top;fillColor=#2875E2;strokeColor=#ffffff;points=[[0.005,0.63,0],[0.1,0.2,0],[0.9,0.2,0],[0.5,0,0],[0.995,0.63,0],[0.72,0.99,0],[0.5,1,0],[0.28,0.99,0]];shape=mxgraph.kubernetes.icon2;prIcon=user" parent="1" vertex="1">
          <mxGeometry x="30" y="170" width="39.58" height="38" as="geometry" />
        </mxCell>
        <mxCell id="tn5ad1HzY3mQpz4RwJXk-46" style="edgeStyle=orthogonalEdgeStyle;rounded=0;orthogonalLoop=1;jettySize=auto;html=1;fontFamily=Helvetica;fontSize=12;fontColor=default;fontStyle=1;startArrow=classic;startFill=1;" parent="1" source="tn5ad1HzY3mQpz4RwJXk-14" target="tn5ad1HzY3mQpz4RwJXk-45" edge="1">
          <mxGeometry relative="1" as="geometry" />
        </mxCell>
        <mxCell id="tn5ad1HzY3mQpz4RwJXk-14" value="eks:General - deployment:gApi&amp;nbsp;" style="swimlane;whiteSpace=wrap;html=1;startSize=23;swimlaneLine=1;expand=1;editable=1;movable=1;resizable=1;rotatable=1;deletable=1;locked=0;connectable=1;allowArrows=1;collapsible=0;fillColor=#fff2cc;strokeColor=#d6b656;" parent="1" vertex="1">
          <mxGeometry x="587" y="100" width="243" height="370" as="geometry" />
        </mxCell>
        <mxCell id="tn5ad1HzY3mQpz4RwJXk-5" value="" style="sketch=0;points=[[0,0,0],[0.25,0,0],[0.5,0,0],[0.75,0,0],[1,0,0],[0,1,0],[0.25,1,0],[0.5,1,0],[0.75,1,0],[1,1,0],[0,0.25,0],[0,0.5,0],[0,0.75,0],[1,0.25,0],[1,0.5,0],[1,0.75,0]];outlineConnect=0;fontColor=#232F3E;fillColor=#ED7100;strokeColor=#ffffff;dashed=0;verticalLabelPosition=bottom;verticalAlign=top;align=center;html=1;fontSize=12;fontStyle=0;aspect=fixed;shape=mxgraph.aws4.resourceIcon;resIcon=mxgraph.aws4.eks_cloud;" parent="tn5ad1HzY3mQpz4RwJXk-14" vertex="1">
          <mxGeometry width="23" height="22" as="geometry" />
        </mxCell>
        <mxCell id="tn5ad1HzY3mQpz4RwJXk-16" value="TransactionPost" style="sketch=0;outlineConnect=0;fontColor=#232F3E;gradientColor=none;fillColor=#8C4FFF;strokeColor=none;dashed=0;verticalLabelPosition=bottom;verticalAlign=top;align=center;html=1;fontSize=12;fontStyle=0;aspect=fixed;pointerEvents=1;shape=mxgraph.aws4.endpoint;fontFamily=Helvetica;" parent="tn5ad1HzY3mQpz4RwJXk-14" vertex="1">
          <mxGeometry x="96.5" y="50" width="30" height="30" as="geometry" />
        </mxCell>
        <mxCell id="tn5ad1HzY3mQpz4RwJXk-18" value="Balance" style="sketch=0;outlineConnect=0;fontColor=#232F3E;gradientColor=none;fillColor=#8C4FFF;strokeColor=none;dashed=0;verticalLabelPosition=bottom;verticalAlign=top;align=center;html=1;fontSize=12;fontStyle=0;aspect=fixed;pointerEvents=1;shape=mxgraph.aws4.endpoint;fontFamily=Helvetica;" parent="tn5ad1HzY3mQpz4RwJXk-14" vertex="1">
          <mxGeometry x="96.5" y="300" width="30" height="30" as="geometry" />
        </mxCell>
        <mxCell id="tn5ad1HzY3mQpz4RwJXk-39" value="TransactionGet" style="sketch=0;outlineConnect=0;fontColor=#232F3E;gradientColor=none;fillColor=#8C4FFF;strokeColor=none;dashed=0;verticalLabelPosition=bottom;verticalAlign=top;align=center;html=1;fontSize=12;fontStyle=0;aspect=fixed;pointerEvents=1;shape=mxgraph.aws4.endpoint;fontFamily=Helvetica;" parent="tn5ad1HzY3mQpz4RwJXk-14" vertex="1">
          <mxGeometry x="96.5" y="150" width="30" height="30" as="geometry" />
        </mxCell>
        <mxCell id="JQjuP2HkVZw_Cns2tLrs-1" value="Transaction&lt;br&gt;AcumulatedGet" style="sketch=0;outlineConnect=0;fontColor=#232F3E;gradientColor=none;fillColor=#8C4FFF;strokeColor=none;dashed=0;verticalLabelPosition=bottom;verticalAlign=top;align=center;html=1;fontSize=12;fontStyle=0;aspect=fixed;pointerEvents=1;shape=mxgraph.aws4.endpoint;fontFamily=Helvetica;" parent="tn5ad1HzY3mQpz4RwJXk-14" vertex="1">
          <mxGeometry x="96.5" y="220" width="30" height="30" as="geometry" />
        </mxCell>
        <mxCell id="tn5ad1HzY3mQpz4RwJXk-28" style="edgeStyle=orthogonalEdgeStyle;rounded=0;orthogonalLoop=1;jettySize=auto;html=1;fontFamily=Helvetica;fontSize=12;fontColor=default;fontStyle=1;" parent="1" source="tn5ad1HzY3mQpz4RwJXk-21" target="tn5ad1HzY3mQpz4RwJXk-23" edge="1">
          <mxGeometry relative="1" as="geometry" />
        </mxCell>
        <mxCell id="tn5ad1HzY3mQpz4RwJXk-21" value="sns&lt;div&gt;FlowRequest&lt;/div&gt;" style="sketch=0;points=[[0,0,0],[0.25,0,0],[0.5,0,0],[0.75,0,0],[1,0,0],[0,1,0],[0.25,1,0],[0.5,1,0],[0.75,1,0],[1,1,0],[0,0.25,0],[0,0.5,0],[0,0.75,0],[1,0.25,0],[1,0.5,0],[1,0.75,0]];outlineConnect=0;fontColor=#232F3E;fillColor=#E7157B;strokeColor=#ffffff;dashed=0;verticalLabelPosition=bottom;verticalAlign=top;align=center;html=1;fontSize=12;fontStyle=0;aspect=fixed;shape=mxgraph.aws4.resourceIcon;resIcon=mxgraph.aws4.sns;fontFamily=Helvetica;" parent="1" vertex="1">
          <mxGeometry x="290" y="170" width="38" height="38" as="geometry" />
        </mxCell>
        <mxCell id="tn5ad1HzY3mQpz4RwJXk-29" style="edgeStyle=orthogonalEdgeStyle;rounded=0;orthogonalLoop=1;jettySize=auto;html=1;fontFamily=Helvetica;fontSize=12;fontColor=default;fontStyle=1;" parent="1" source="tn5ad1HzY3mQpz4RwJXk-23" target="tn5ad1HzY3mQpz4RwJXk-16" edge="1">
          <mxGeometry relative="1" as="geometry">
            <mxPoint x="580" y="189" as="targetPoint" />
            <Array as="points">
              <mxPoint x="546" y="189" />
              <mxPoint x="546" y="220" />
              <mxPoint x="700" y="220" />
            </Array>
          </mxGeometry>
        </mxCell>
        <mxCell id="tn5ad1HzY3mQpz4RwJXk-23" value="sqs&lt;div&gt;FlowTransaction&lt;/div&gt;" style="sketch=0;points=[[0,0,0],[0.25,0,0],[0.5,0,0],[0.75,0,0],[1,0,0],[0,1,0],[0.25,1,0],[0.5,1,0],[0.75,1,0],[1,1,0],[0,0.25,0],[0,0.5,0],[0,0.75,0],[1,0.25,0],[1,0.5,0],[1,0.75,0]];outlineConnect=0;fontColor=#232F3E;fillColor=#E7157B;strokeColor=#ffffff;dashed=0;verticalLabelPosition=bottom;verticalAlign=top;align=center;html=1;fontSize=12;fontStyle=0;aspect=fixed;shape=mxgraph.aws4.resourceIcon;resIcon=mxgraph.aws4.sqs;fontFamily=Helvetica;" parent="1" vertex="1">
          <mxGeometry x="400" y="170" width="38" height="38" as="geometry" />
        </mxCell>
        <mxCell id="tn5ad1HzY3mQpz4RwJXk-32" style="edgeStyle=orthogonalEdgeStyle;rounded=0;orthogonalLoop=1;jettySize=auto;html=1;fontFamily=Helvetica;fontSize=12;fontColor=default;fontStyle=1;" parent="1" source="tn5ad1HzY3mQpz4RwJXk-25" target="tn5ad1HzY3mQpz4RwJXk-23" edge="1">
          <mxGeometry relative="1" as="geometry" />
        </mxCell>
        <mxCell id="tn5ad1HzY3mQpz4RwJXk-25" value="sqs:&lt;div&gt;FlowTransactionDlq&lt;/div&gt;" style="sketch=0;points=[[0,0,0],[0.25,0,0],[0.5,0,0],[0.75,0,0],[1,0,0],[0,1,0],[0.25,1,0],[0.5,1,0],[0.75,1,0],[1,1,0],[0,0.25,0],[0,0.5,0],[0,0.75,0],[1,0.25,0],[1,0.5,0],[1,0.75,0]];outlineConnect=0;fontColor=#232F3E;fillColor=#E7157B;strokeColor=#ffffff;dashed=0;verticalLabelPosition=bottom;verticalAlign=top;align=center;html=1;fontSize=12;fontStyle=0;aspect=fixed;shape=mxgraph.aws4.resourceIcon;resIcon=mxgraph.aws4.sqs;fontFamily=Helvetica;" parent="1" vertex="1">
          <mxGeometry x="490" y="112" width="38" height="38" as="geometry" />
        </mxCell>
        <mxCell id="tn5ad1HzY3mQpz4RwJXk-35" style="edgeStyle=orthogonalEdgeStyle;rounded=0;orthogonalLoop=1;jettySize=auto;html=1;entryX=1;entryY=0.5;entryDx=0;entryDy=0;entryPerimeter=0;fontFamily=Helvetica;fontSize=12;fontColor=default;fontStyle=1;" parent="1" source="tn5ad1HzY3mQpz4RwJXk-16" target="tn5ad1HzY3mQpz4RwJXk-25" edge="1">
          <mxGeometry relative="1" as="geometry">
            <Array as="points">
              <mxPoint x="560" y="165" />
              <mxPoint x="560" y="131" />
            </Array>
          </mxGeometry>
        </mxCell>
        <mxCell id="tn5ad1HzY3mQpz4RwJXk-43" style="edgeStyle=orthogonalEdgeStyle;rounded=0;orthogonalLoop=1;jettySize=auto;html=1;fontFamily=Helvetica;fontSize=12;fontColor=default;fontStyle=1;startArrow=classic;startFill=1;" parent="1" source="tn5ad1HzY3mQpz4RwJXk-40" target="tn5ad1HzY3mQpz4RwJXk-39" edge="1">
          <mxGeometry relative="1" as="geometry" />
        </mxCell>
        <mxCell id="tn5ad1HzY3mQpz4RwJXk-44" style="edgeStyle=orthogonalEdgeStyle;rounded=0;orthogonalLoop=1;jettySize=auto;html=1;fontFamily=Helvetica;fontSize=12;fontColor=default;fontStyle=1;startArrow=classic;startFill=1;endArrow=classic;endFill=1;" parent="1" source="tn5ad1HzY3mQpz4RwJXk-40" target="tn5ad1HzY3mQpz4RwJXk-18" edge="1">
          <mxGeometry relative="1" as="geometry">
            <Array as="points">
              <mxPoint x="170" y="415" />
            </Array>
          </mxGeometry>
        </mxCell>
        <mxCell id="tn5ad1HzY3mQpz4RwJXk-40" value="apigw:&lt;br&gt;&lt;span style=&quot;background-color: transparent; color: light-dark(rgb(35, 47, 62), rgb(189, 199, 212));&quot;&gt;FlowGet&lt;/span&gt;" style="sketch=0;points=[[0,0,0],[0.25,0,0],[0.5,0,0],[0.75,0,0],[1,0,0],[0,1,0],[0.25,1,0],[0.5,1,0],[0.75,1,0],[1,1,0],[0,0.25,0],[0,0.5,0],[0,0.75,0],[1,0.25,0],[1,0.5,0],[1,0.75,0]];outlineConnect=0;fontColor=#232F3E;fillColor=#8C4FFF;strokeColor=#ffffff;dashed=0;verticalLabelPosition=bottom;verticalAlign=top;align=center;html=1;fontSize=12;fontStyle=0;aspect=fixed;shape=mxgraph.aws4.resourceIcon;resIcon=mxgraph.aws4.api_gateway;" parent="1" vertex="1">
          <mxGeometry x="160" y="280" width="40" height="40" as="geometry" />
        </mxCell>
        <mxCell id="tn5ad1HzY3mQpz4RwJXk-42" style="edgeStyle=orthogonalEdgeStyle;rounded=0;orthogonalLoop=1;jettySize=auto;html=1;entryX=0;entryY=0.5;entryDx=0;entryDy=0;entryPerimeter=0;fontFamily=Helvetica;fontSize=12;fontColor=default;fontStyle=1;startArrow=classic;startFill=1;" parent="1" source="tn5ad1HzY3mQpz4RwJXk-3" target="tn5ad1HzY3mQpz4RwJXk-40" edge="1">
          <mxGeometry relative="1" as="geometry">
            <Array as="points">
              <mxPoint x="50" y="300" />
            </Array>
          </mxGeometry>
        </mxCell>
        <mxCell id="tn5ad1HzY3mQpz4RwJXk-45" value="db&lt;br&gt;&lt;div&gt;Flow&lt;/div&gt;" style="image;aspect=fixed;html=1;points=[];align=center;fontSize=12;image=img/lib/azure2/databases/Azure_Database_PostgreSQL_Server.svg;strokeColor=default;verticalAlign=middle;fontFamily=Helvetica;fontColor=default;fontStyle=1;fillColor=default;" parent="1" vertex="1">
          <mxGeometry x="898.63" y="261.5" width="35.25" height="47" as="geometry" />
        </mxCell>
        <mxCell id="tn5ad1HzY3mQpz4RwJXk-47" style="edgeStyle=orthogonalEdgeStyle;rounded=0;orthogonalLoop=1;jettySize=auto;html=1;fontFamily=Helvetica;fontSize=12;fontColor=default;fontStyle=1;" parent="1" source="tn5ad1HzY3mQpz4RwJXk-48" target="tn5ad1HzY3mQpz4RwJXk-58" edge="1">
          <mxGeometry relative="1" as="geometry" />
        </mxCell>
        <mxCell id="tn5ad1HzY3mQpz4RwJXk-48" value="apigw:&lt;br&gt;&lt;span style=&quot;background-color: transparent; color: light-dark(rgb(35, 47, 62), rgb(189, 199, 212));&quot;&gt;FlowPost&lt;/span&gt;" style="sketch=0;points=[[0,0,0],[0.25,0,0],[0.5,0,0],[0.75,0,0],[1,0,0],[0,1,0],[0.25,1,0],[0.5,1,0],[0.75,1,0],[1,1,0],[0,0.25,0],[0,0.5,0],[0,0.75,0],[1,0.25,0],[1,0.5,0],[1,0.75,0]];outlineConnect=0;fontColor=#232F3E;fillColor=#8C4FFF;strokeColor=#ffffff;dashed=0;verticalLabelPosition=bottom;verticalAlign=top;align=center;html=1;fontSize=12;fontStyle=0;aspect=fixed;shape=mxgraph.aws4.resourceIcon;resIcon=mxgraph.aws4.api_gateway;" parent="1" vertex="1">
          <mxGeometry x="160" y="808" width="40" height="40" as="geometry" />
        </mxCell>
        <mxCell id="tn5ad1HzY3mQpz4RwJXk-49" style="edgeStyle=orthogonalEdgeStyle;rounded=0;orthogonalLoop=1;jettySize=auto;html=1;fontFamily=Helvetica;fontSize=12;fontColor=default;fontStyle=1;" parent="1" source="tn5ad1HzY3mQpz4RwJXk-50" target="tn5ad1HzY3mQpz4RwJXk-48" edge="1">
          <mxGeometry relative="1" as="geometry" />
        </mxCell>
        <mxCell id="tn5ad1HzY3mQpz4RwJXk-50" value="" style="aspect=fixed;sketch=0;html=1;dashed=0;whitespace=wrap;verticalLabelPosition=bottom;verticalAlign=top;fillColor=#2875E2;strokeColor=#ffffff;points=[[0.005,0.63,0],[0.1,0.2,0],[0.9,0.2,0],[0.5,0,0],[0.995,0.63,0],[0.72,0.99,0],[0.5,1,0],[0.28,0.99,0]];shape=mxgraph.kubernetes.icon2;prIcon=user" parent="1" vertex="1">
          <mxGeometry x="30" y="809" width="39.58" height="38" as="geometry" />
        </mxCell>
        <mxCell id="tn5ad1HzY3mQpz4RwJXk-51" style="edgeStyle=orthogonalEdgeStyle;rounded=0;orthogonalLoop=1;jettySize=auto;html=1;fontFamily=Helvetica;fontSize=12;fontColor=default;fontStyle=1;startArrow=classic;startFill=1;" parent="1" source="tn5ad1HzY3mQpz4RwJXk-52" target="tn5ad1HzY3mQpz4RwJXk-68" edge="1">
          <mxGeometry relative="1" as="geometry">
            <Array as="points">
              <mxPoint x="842" y="1060" />
              <mxPoint x="842" y="894" />
            </Array>
          </mxGeometry>
        </mxCell>
        <mxCell id="tn5ad1HzY3mQpz4RwJXk-52" value="eks:General - deployment:gApi&amp;nbsp;" style="swimlane;whiteSpace=wrap;html=1;startSize=23;swimlaneLine=1;expand=1;editable=1;movable=1;resizable=1;rotatable=1;deletable=1;locked=0;connectable=1;allowArrows=1;collapsible=0;fillColor=#fff2cc;strokeColor=#d6b656;" parent="1" vertex="1">
          <mxGeometry x="540" y="900" width="243" height="290" as="geometry" />
        </mxCell>
        <mxCell id="tn5ad1HzY3mQpz4RwJXk-53" value="" style="sketch=0;points=[[0,0,0],[0.25,0,0],[0.5,0,0],[0.75,0,0],[1,0,0],[0,1,0],[0.25,1,0],[0.5,1,0],[0.75,1,0],[1,1,0],[0,0.25,0],[0,0.5,0],[0,0.75,0],[1,0.25,0],[1,0.5,0],[1,0.75,0]];outlineConnect=0;fontColor=#232F3E;fillColor=#ED7100;strokeColor=#ffffff;dashed=0;verticalLabelPosition=bottom;verticalAlign=top;align=center;html=1;fontSize=12;fontStyle=0;aspect=fixed;shape=mxgraph.aws4.resourceIcon;resIcon=mxgraph.aws4.eks_cloud;" parent="tn5ad1HzY3mQpz4RwJXk-52" vertex="1">
          <mxGeometry width="23" height="22" as="geometry" />
        </mxCell>
        <mxCell id="UWg4xOx1MG2IhUKNaQt1-1" value="Balance" style="sketch=0;outlineConnect=0;fontColor=#232F3E;gradientColor=none;fillColor=#8C4FFF;strokeColor=none;dashed=0;verticalLabelPosition=bottom;verticalAlign=top;align=center;html=1;fontSize=12;fontStyle=0;aspect=fixed;pointerEvents=1;shape=mxgraph.aws4.endpoint;fontFamily=Helvetica;" vertex="1" parent="tn5ad1HzY3mQpz4RwJXk-52">
          <mxGeometry x="106.5" y="223" width="30" height="30" as="geometry" />
        </mxCell>
        <mxCell id="UWg4xOx1MG2IhUKNaQt1-2" value="TransactionGet" style="sketch=0;outlineConnect=0;fontColor=#232F3E;gradientColor=none;fillColor=#8C4FFF;strokeColor=none;dashed=0;verticalLabelPosition=bottom;verticalAlign=top;align=center;html=1;fontSize=12;fontStyle=0;aspect=fixed;pointerEvents=1;shape=mxgraph.aws4.endpoint;fontFamily=Helvetica;" vertex="1" parent="tn5ad1HzY3mQpz4RwJXk-52">
          <mxGeometry x="106.5" y="73" width="30" height="30" as="geometry" />
        </mxCell>
        <mxCell id="UWg4xOx1MG2IhUKNaQt1-3" value="Transaction&lt;br&gt;AcumulatedGet" style="sketch=0;outlineConnect=0;fontColor=#232F3E;gradientColor=none;fillColor=#8C4FFF;strokeColor=none;dashed=0;verticalLabelPosition=bottom;verticalAlign=top;align=center;html=1;fontSize=12;fontStyle=0;aspect=fixed;pointerEvents=1;shape=mxgraph.aws4.endpoint;fontFamily=Helvetica;" vertex="1" parent="tn5ad1HzY3mQpz4RwJXk-52">
          <mxGeometry x="106.5" y="143" width="30" height="30" as="geometry" />
        </mxCell>
        <mxCell id="tn5ad1HzY3mQpz4RwJXk-57" style="edgeStyle=orthogonalEdgeStyle;rounded=0;orthogonalLoop=1;jettySize=auto;html=1;fontFamily=Helvetica;fontSize=12;fontColor=default;fontStyle=1;" parent="1" source="tn5ad1HzY3mQpz4RwJXk-58" target="tn5ad1HzY3mQpz4RwJXk-60" edge="1">
          <mxGeometry relative="1" as="geometry" />
        </mxCell>
        <mxCell id="tn5ad1HzY3mQpz4RwJXk-58" value="sns&lt;div&gt;FlowRequest&lt;/div&gt;" style="sketch=0;points=[[0,0,0],[0.25,0,0],[0.5,0,0],[0.75,0,0],[1,0,0],[0,1,0],[0.25,1,0],[0.5,1,0],[0.75,1,0],[1,1,0],[0,0.25,0],[0,0.5,0],[0,0.75,0],[1,0.25,0],[1,0.5,0],[1,0.75,0]];outlineConnect=0;fontColor=#232F3E;fillColor=#E7157B;strokeColor=#ffffff;dashed=0;verticalLabelPosition=bottom;verticalAlign=top;align=center;html=1;fontSize=12;fontStyle=0;aspect=fixed;shape=mxgraph.aws4.resourceIcon;resIcon=mxgraph.aws4.sns;fontFamily=Helvetica;" parent="1" vertex="1">
          <mxGeometry x="290" y="809" width="38" height="38" as="geometry" />
        </mxCell>
        <mxCell id="tn5ad1HzY3mQpz4RwJXk-72" style="edgeStyle=orthogonalEdgeStyle;rounded=0;orthogonalLoop=1;jettySize=auto;html=1;fontFamily=Helvetica;fontSize=12;fontColor=default;fontStyle=1;" parent="1" source="tn5ad1HzY3mQpz4RwJXk-60" target="tn5ad1HzY3mQpz4RwJXk-69" edge="1">
          <mxGeometry relative="1" as="geometry" />
        </mxCell>
        <mxCell id="tn5ad1HzY3mQpz4RwJXk-60" value="sqs&lt;div&gt;FlowTransaction&lt;/div&gt;" style="sketch=0;points=[[0,0,0],[0.25,0,0],[0.5,0,0],[0.75,0,0],[1,0,0],[0,1,0],[0.25,1,0],[0.5,1,0],[0.75,1,0],[1,1,0],[0,0.25,0],[0,0.5,0],[0,0.75,0],[1,0.25,0],[1,0.5,0],[1,0.75,0]];outlineConnect=0;fontColor=#232F3E;fillColor=#E7157B;strokeColor=#ffffff;dashed=0;verticalLabelPosition=bottom;verticalAlign=top;align=center;html=1;fontSize=12;fontStyle=0;aspect=fixed;shape=mxgraph.aws4.resourceIcon;resIcon=mxgraph.aws4.sqs;fontFamily=Helvetica;" parent="1" vertex="1">
          <mxGeometry x="414" y="809" width="38" height="38" as="geometry" />
        </mxCell>
        <mxCell id="tn5ad1HzY3mQpz4RwJXk-61" style="edgeStyle=orthogonalEdgeStyle;rounded=0;orthogonalLoop=1;jettySize=auto;html=1;fontFamily=Helvetica;fontSize=12;fontColor=default;fontStyle=1;" parent="1" source="tn5ad1HzY3mQpz4RwJXk-62" target="tn5ad1HzY3mQpz4RwJXk-60" edge="1">
          <mxGeometry relative="1" as="geometry" />
        </mxCell>
        <mxCell id="tn5ad1HzY3mQpz4RwJXk-62" value="sqs:&lt;div&gt;FlowTransactionDlq&lt;/div&gt;" style="sketch=0;points=[[0,0,0],[0.25,0,0],[0.5,0,0],[0.75,0,0],[1,0,0],[0,1,0],[0.25,1,0],[0.5,1,0],[0.75,1,0],[1,1,0],[0,0.25,0],[0,0.5,0],[0,0.75,0],[1,0.25,0],[1,0.5,0],[1,0.75,0]];outlineConnect=0;fontColor=#232F3E;fillColor=#E7157B;strokeColor=#ffffff;dashed=0;verticalLabelPosition=bottom;verticalAlign=top;align=center;html=1;fontSize=12;fontStyle=0;aspect=fixed;shape=mxgraph.aws4.resourceIcon;resIcon=mxgraph.aws4.sqs;fontFamily=Helvetica;" parent="1" vertex="1">
          <mxGeometry x="528" y="729" width="38" height="38" as="geometry" />
        </mxCell>
        <mxCell id="tn5ad1HzY3mQpz4RwJXk-64" style="edgeStyle=orthogonalEdgeStyle;rounded=0;orthogonalLoop=1;jettySize=auto;html=1;fontFamily=Helvetica;fontSize=12;fontColor=default;fontStyle=1;startArrow=classic;startFill=1;" parent="1" source="tn5ad1HzY3mQpz4RwJXk-66" target="UWg4xOx1MG2IhUKNaQt1-2" edge="1">
          <mxGeometry relative="1" as="geometry">
            <Array as="points">
              <mxPoint x="180" y="988" />
            </Array>
          </mxGeometry>
        </mxCell>
        <mxCell id="tn5ad1HzY3mQpz4RwJXk-65" style="edgeStyle=orthogonalEdgeStyle;rounded=0;orthogonalLoop=1;jettySize=auto;html=1;fontFamily=Helvetica;fontSize=12;fontColor=default;fontStyle=1;startArrow=classic;startFill=1;" parent="1" source="tn5ad1HzY3mQpz4RwJXk-66" target="UWg4xOx1MG2IhUKNaQt1-3" edge="1">
          <mxGeometry relative="1" as="geometry">
            <Array as="points">
              <mxPoint x="180" y="1060" />
            </Array>
          </mxGeometry>
        </mxCell>
        <mxCell id="UWg4xOx1MG2IhUKNaQt1-6" style="edgeStyle=orthogonalEdgeStyle;rounded=0;orthogonalLoop=1;jettySize=auto;html=1;" edge="1" parent="1" source="tn5ad1HzY3mQpz4RwJXk-66" target="UWg4xOx1MG2IhUKNaQt1-1">
          <mxGeometry relative="1" as="geometry">
            <Array as="points">
              <mxPoint x="180" y="1138" />
            </Array>
          </mxGeometry>
        </mxCell>
        <mxCell id="tn5ad1HzY3mQpz4RwJXk-66" value="apigw:&lt;br&gt;&lt;span style=&quot;background-color: transparent; color: light-dark(rgb(35, 47, 62), rgb(189, 199, 212));&quot;&gt;FlowGet&lt;/span&gt;" style="sketch=0;points=[[0,0,0],[0.25,0,0],[0.5,0,0],[0.75,0,0],[1,0,0],[0,1,0],[0.25,1,0],[0.5,1,0],[0.75,1,0],[1,1,0],[0,0.25,0],[0,0.5,0],[0,0.75,0],[1,0.25,0],[1,0.5,0],[1,0.75,0]];outlineConnect=0;fontColor=#232F3E;fillColor=#8C4FFF;strokeColor=#ffffff;dashed=0;verticalLabelPosition=bottom;verticalAlign=top;align=center;html=1;fontSize=12;fontStyle=0;aspect=fixed;shape=mxgraph.aws4.resourceIcon;resIcon=mxgraph.aws4.api_gateway;" parent="1" vertex="1">
          <mxGeometry x="160" y="919" width="40" height="40" as="geometry" />
        </mxCell>
        <mxCell id="tn5ad1HzY3mQpz4RwJXk-67" style="edgeStyle=orthogonalEdgeStyle;rounded=0;orthogonalLoop=1;jettySize=auto;html=1;entryX=0;entryY=0.5;entryDx=0;entryDy=0;entryPerimeter=0;fontFamily=Helvetica;fontSize=12;fontColor=default;fontStyle=1;startArrow=classic;startFill=1;" parent="1" source="tn5ad1HzY3mQpz4RwJXk-50" target="tn5ad1HzY3mQpz4RwJXk-66" edge="1">
          <mxGeometry relative="1" as="geometry">
            <Array as="points">
              <mxPoint x="50" y="939" />
            </Array>
          </mxGeometry>
        </mxCell>
        <mxCell id="tn5ad1HzY3mQpz4RwJXk-68" value="db&lt;br&gt;&lt;div&gt;Flow&lt;/div&gt;" style="image;aspect=fixed;html=1;points=[];align=center;fontSize=12;image=img/lib/azure2/databases/Azure_Database_PostgreSQL_Server.svg;strokeColor=default;verticalAlign=middle;fontFamily=Helvetica;fontColor=default;fontStyle=1;fillColor=default;" parent="1" vertex="1">
          <mxGeometry x="900" y="870" width="35.25" height="47" as="geometry" />
        </mxCell>
        <mxCell id="tn5ad1HzY3mQpz4RwJXk-71" style="edgeStyle=orthogonalEdgeStyle;rounded=0;orthogonalLoop=1;jettySize=auto;html=1;fontFamily=Helvetica;fontSize=12;fontColor=default;fontStyle=1;" parent="1" source="tn5ad1HzY3mQpz4RwJXk-69" target="tn5ad1HzY3mQpz4RwJXk-68" edge="1">
          <mxGeometry relative="1" as="geometry" />
        </mxCell>
        <mxCell id="tn5ad1HzY3mQpz4RwJXk-69" value="lambda&lt;div&gt;FlowTransactionPost&lt;/div&gt;" style="outlineConnect=0;dashed=0;verticalLabelPosition=bottom;verticalAlign=top;align=center;html=1;shape=mxgraph.aws3.lambda_function;fillColor=#5294CF;gradientColor=none;strokeColor=default;fontFamily=Helvetica;fontSize=12;fontColor=default;fontStyle=1;" parent="1" vertex="1">
          <mxGeometry x="640" y="808" width="40" height="38" as="geometry" />
        </mxCell>
        <mxCell id="tn5ad1HzY3mQpz4RwJXk-73" style="edgeStyle=orthogonalEdgeStyle;rounded=0;orthogonalLoop=1;jettySize=auto;html=1;entryX=1;entryY=0.5;entryDx=0;entryDy=0;entryPerimeter=0;fontFamily=Helvetica;fontSize=12;fontColor=default;fontStyle=1;" parent="1" source="tn5ad1HzY3mQpz4RwJXk-69" target="tn5ad1HzY3mQpz4RwJXk-62" edge="1">
          <mxGeometry relative="1" as="geometry">
            <Array as="points">
              <mxPoint x="660" y="748" />
            </Array>
          </mxGeometry>
        </mxCell>
        <mxCell id="tn5ad1HzY3mQpz4RwJXk-98" style="edgeStyle=orthogonalEdgeStyle;rounded=0;orthogonalLoop=1;jettySize=auto;html=1;fontFamily=Helvetica;fontSize=12;fontColor=default;fontStyle=1;" parent="1" source="tn5ad1HzY3mQpz4RwJXk-99" target="tn5ad1HzY3mQpz4RwJXk-109" edge="1">
          <mxGeometry relative="1" as="geometry" />
        </mxCell>
        <mxCell id="tn5ad1HzY3mQpz4RwJXk-99" value="apigw:&lt;br&gt;&lt;span style=&quot;background-color: transparent; color: light-dark(rgb(35, 47, 62), rgb(189, 199, 212));&quot;&gt;FlowPost&lt;/span&gt;" style="sketch=0;points=[[0,0,0],[0.25,0,0],[0.5,0,0],[0.75,0,0],[1,0,0],[0,1,0],[0.25,1,0],[0.5,1,0],[0.75,1,0],[1,1,0],[0,0.25,0],[0,0.5,0],[0,0.75,0],[1,0.25,0],[1,0.5,0],[1,0.75,0]];outlineConnect=0;fontColor=#232F3E;fillColor=#8C4FFF;strokeColor=#ffffff;dashed=0;verticalLabelPosition=bottom;verticalAlign=top;align=center;html=1;fontSize=12;fontStyle=0;aspect=fixed;shape=mxgraph.aws4.resourceIcon;resIcon=mxgraph.aws4.api_gateway;" parent="1" vertex="1">
          <mxGeometry x="140" y="1689" width="40" height="40" as="geometry" />
        </mxCell>
        <mxCell id="tn5ad1HzY3mQpz4RwJXk-100" style="edgeStyle=orthogonalEdgeStyle;rounded=0;orthogonalLoop=1;jettySize=auto;html=1;fontFamily=Helvetica;fontSize=12;fontColor=default;fontStyle=1;" parent="1" source="tn5ad1HzY3mQpz4RwJXk-101" target="tn5ad1HzY3mQpz4RwJXk-99" edge="1">
          <mxGeometry relative="1" as="geometry" />
        </mxCell>
        <mxCell id="tn5ad1HzY3mQpz4RwJXk-101" value="" style="aspect=fixed;sketch=0;html=1;dashed=0;whitespace=wrap;verticalLabelPosition=bottom;verticalAlign=top;fillColor=#2875E2;strokeColor=#ffffff;points=[[0.005,0.63,0],[0.1,0.2,0],[0.9,0.2,0],[0.5,0,0],[0.995,0.63,0],[0.72,0.99,0],[0.5,1,0],[0.28,0.99,0]];shape=mxgraph.kubernetes.icon2;prIcon=user" parent="1" vertex="1">
          <mxGeometry x="10" y="1690" width="39.58" height="38" as="geometry" />
        </mxCell>
        <mxCell id="tn5ad1HzY3mQpz4RwJXk-102" style="edgeStyle=orthogonalEdgeStyle;rounded=0;orthogonalLoop=1;jettySize=auto;html=1;fontFamily=Helvetica;fontSize=12;fontColor=default;fontStyle=1;startArrow=classic;startFill=1;" parent="1" source="tn5ad1HzY3mQpz4RwJXk-125" target="tn5ad1HzY3mQpz4RwJXk-118" edge="1">
          <mxGeometry relative="1" as="geometry" />
        </mxCell>
        <mxCell id="tn5ad1HzY3mQpz4RwJXk-103" value="eks:General - deployment:gApi&amp;nbsp;" style="swimlane;whiteSpace=wrap;html=1;startSize=23;swimlaneLine=1;expand=1;editable=1;movable=1;resizable=1;rotatable=1;deletable=1;locked=0;connectable=1;allowArrows=1;collapsible=0;fillColor=#fff2cc;strokeColor=#d6b656;" parent="1" vertex="1">
          <mxGeometry x="528" y="1810" width="243" height="280" as="geometry" />
        </mxCell>
        <mxCell id="tn5ad1HzY3mQpz4RwJXk-104" value="" style="sketch=0;points=[[0,0,0],[0.25,0,0],[0.5,0,0],[0.75,0,0],[1,0,0],[0,1,0],[0.25,1,0],[0.5,1,0],[0.75,1,0],[1,1,0],[0,0.25,0],[0,0.5,0],[0,0.75,0],[1,0.25,0],[1,0.5,0],[1,0.75,0]];outlineConnect=0;fontColor=#232F3E;fillColor=#ED7100;strokeColor=#ffffff;dashed=0;verticalLabelPosition=bottom;verticalAlign=top;align=center;html=1;fontSize=12;fontStyle=0;aspect=fixed;shape=mxgraph.aws4.resourceIcon;resIcon=mxgraph.aws4.eks_cloud;" parent="tn5ad1HzY3mQpz4RwJXk-103" vertex="1">
          <mxGeometry width="23" height="22" as="geometry" />
        </mxCell>
        <mxCell id="UWg4xOx1MG2IhUKNaQt1-7" value="Balance" style="sketch=0;outlineConnect=0;fontColor=#232F3E;gradientColor=none;fillColor=#8C4FFF;strokeColor=none;dashed=0;verticalLabelPosition=bottom;verticalAlign=top;align=center;html=1;fontSize=12;fontStyle=0;aspect=fixed;pointerEvents=1;shape=mxgraph.aws4.endpoint;fontFamily=Helvetica;" vertex="1" parent="tn5ad1HzY3mQpz4RwJXk-103">
          <mxGeometry x="112" y="200" width="30" height="30" as="geometry" />
        </mxCell>
        <mxCell id="UWg4xOx1MG2IhUKNaQt1-8" value="TransactionGet" style="sketch=0;outlineConnect=0;fontColor=#232F3E;gradientColor=none;fillColor=#8C4FFF;strokeColor=none;dashed=0;verticalLabelPosition=bottom;verticalAlign=top;align=center;html=1;fontSize=12;fontStyle=0;aspect=fixed;pointerEvents=1;shape=mxgraph.aws4.endpoint;fontFamily=Helvetica;" vertex="1" parent="tn5ad1HzY3mQpz4RwJXk-103">
          <mxGeometry x="112" y="50" width="30" height="30" as="geometry" />
        </mxCell>
        <mxCell id="UWg4xOx1MG2IhUKNaQt1-9" value="Transaction&lt;br&gt;AcumulatedGet" style="sketch=0;outlineConnect=0;fontColor=#232F3E;gradientColor=none;fillColor=#8C4FFF;strokeColor=none;dashed=0;verticalLabelPosition=bottom;verticalAlign=top;align=center;html=1;fontSize=12;fontStyle=0;aspect=fixed;pointerEvents=1;shape=mxgraph.aws4.endpoint;fontFamily=Helvetica;" vertex="1" parent="tn5ad1HzY3mQpz4RwJXk-103">
          <mxGeometry x="112" y="120" width="30" height="30" as="geometry" />
        </mxCell>
        <mxCell id="tn5ad1HzY3mQpz4RwJXk-108" style="edgeStyle=orthogonalEdgeStyle;rounded=0;orthogonalLoop=1;jettySize=auto;html=1;fontFamily=Helvetica;fontSize=12;fontColor=default;fontStyle=1;" parent="1" source="tn5ad1HzY3mQpz4RwJXk-109" target="tn5ad1HzY3mQpz4RwJXk-111" edge="1">
          <mxGeometry relative="1" as="geometry" />
        </mxCell>
        <mxCell id="tn5ad1HzY3mQpz4RwJXk-109" value="sns&lt;div&gt;FlowRequest&lt;/div&gt;" style="sketch=0;points=[[0,0,0],[0.25,0,0],[0.5,0,0],[0.75,0,0],[1,0,0],[0,1,0],[0.25,1,0],[0.5,1,0],[0.75,1,0],[1,1,0],[0,0.25,0],[0,0.5,0],[0,0.75,0],[1,0.25,0],[1,0.5,0],[1,0.75,0]];outlineConnect=0;fontColor=#232F3E;fillColor=#E7157B;strokeColor=#ffffff;dashed=0;verticalLabelPosition=bottom;verticalAlign=top;align=center;html=1;fontSize=12;fontStyle=0;aspect=fixed;shape=mxgraph.aws4.resourceIcon;resIcon=mxgraph.aws4.sns;fontFamily=Helvetica;" parent="1" vertex="1">
          <mxGeometry x="271" y="1690" width="38" height="38" as="geometry" />
        </mxCell>
        <mxCell id="tn5ad1HzY3mQpz4RwJXk-110" style="edgeStyle=orthogonalEdgeStyle;rounded=0;orthogonalLoop=1;jettySize=auto;html=1;fontFamily=Helvetica;fontSize=12;fontColor=default;fontStyle=1;" parent="1" source="tn5ad1HzY3mQpz4RwJXk-111" target="tn5ad1HzY3mQpz4RwJXk-120" edge="1">
          <mxGeometry relative="1" as="geometry" />
        </mxCell>
        <mxCell id="tn5ad1HzY3mQpz4RwJXk-111" value="sqs&lt;div&gt;FlowTransaction&lt;/div&gt;" style="sketch=0;points=[[0,0,0],[0.25,0,0],[0.5,0,0],[0.75,0,0],[1,0,0],[0,1,0],[0.25,1,0],[0.5,1,0],[0.75,1,0],[1,1,0],[0,0.25,0],[0,0.5,0],[0,0.75,0],[1,0.25,0],[1,0.5,0],[1,0.75,0]];outlineConnect=0;fontColor=#232F3E;fillColor=#E7157B;strokeColor=#ffffff;dashed=0;verticalLabelPosition=bottom;verticalAlign=top;align=center;html=1;fontSize=12;fontStyle=0;aspect=fixed;shape=mxgraph.aws4.resourceIcon;resIcon=mxgraph.aws4.sqs;fontFamily=Helvetica;" parent="1" vertex="1">
          <mxGeometry x="394" y="1690" width="38" height="38" as="geometry" />
        </mxCell>
        <mxCell id="tn5ad1HzY3mQpz4RwJXk-112" style="edgeStyle=orthogonalEdgeStyle;rounded=0;orthogonalLoop=1;jettySize=auto;html=1;fontFamily=Helvetica;fontSize=12;fontColor=default;fontStyle=1;" parent="1" source="tn5ad1HzY3mQpz4RwJXk-113" target="tn5ad1HzY3mQpz4RwJXk-111" edge="1">
          <mxGeometry relative="1" as="geometry" />
        </mxCell>
        <mxCell id="tn5ad1HzY3mQpz4RwJXk-113" value="sqs:&lt;div&gt;FlowTransactionDlq&lt;/div&gt;" style="sketch=0;points=[[0,0,0],[0.25,0,0],[0.5,0,0],[0.75,0,0],[1,0,0],[0,1,0],[0.25,1,0],[0.5,1,0],[0.75,1,0],[1,1,0],[0,0.25,0],[0,0.5,0],[0,0.75,0],[1,0.25,0],[1,0.5,0],[1,0.75,0]];outlineConnect=0;fontColor=#232F3E;fillColor=#E7157B;strokeColor=#ffffff;dashed=0;verticalLabelPosition=bottom;verticalAlign=top;align=center;html=1;fontSize=12;fontStyle=0;aspect=fixed;shape=mxgraph.aws4.resourceIcon;resIcon=mxgraph.aws4.sqs;fontFamily=Helvetica;" parent="1" vertex="1">
          <mxGeometry x="508" y="1610" width="38" height="38" as="geometry" />
        </mxCell>
        <mxCell id="tn5ad1HzY3mQpz4RwJXk-114" style="edgeStyle=orthogonalEdgeStyle;rounded=0;orthogonalLoop=1;jettySize=auto;html=1;fontFamily=Helvetica;fontSize=12;fontColor=default;fontStyle=1;startArrow=classic;startFill=1;" parent="1" source="tn5ad1HzY3mQpz4RwJXk-116" target="UWg4xOx1MG2IhUKNaQt1-8" edge="1">
          <mxGeometry relative="1" as="geometry">
            <Array as="points">
              <mxPoint x="160" y="1875" />
            </Array>
          </mxGeometry>
        </mxCell>
        <mxCell id="tn5ad1HzY3mQpz4RwJXk-115" style="edgeStyle=orthogonalEdgeStyle;rounded=0;orthogonalLoop=1;jettySize=auto;html=1;fontFamily=Helvetica;fontSize=12;fontColor=default;fontStyle=1;startArrow=classic;startFill=1;" parent="1" source="tn5ad1HzY3mQpz4RwJXk-116" target="UWg4xOx1MG2IhUKNaQt1-9" edge="1">
          <mxGeometry relative="1" as="geometry">
            <Array as="points">
              <mxPoint x="160" y="1945" />
            </Array>
          </mxGeometry>
        </mxCell>
        <mxCell id="UWg4xOx1MG2IhUKNaQt1-10" style="edgeStyle=orthogonalEdgeStyle;rounded=0;orthogonalLoop=1;jettySize=auto;html=1;" edge="1" parent="1" source="tn5ad1HzY3mQpz4RwJXk-116" target="UWg4xOx1MG2IhUKNaQt1-7">
          <mxGeometry relative="1" as="geometry">
            <Array as="points">
              <mxPoint x="160" y="2025" />
            </Array>
          </mxGeometry>
        </mxCell>
        <mxCell id="tn5ad1HzY3mQpz4RwJXk-116" value="apigw:&lt;br&gt;&lt;span style=&quot;background-color: transparent; color: light-dark(rgb(35, 47, 62), rgb(189, 199, 212));&quot;&gt;FlowGet&lt;/span&gt;" style="sketch=0;points=[[0,0,0],[0.25,0,0],[0.5,0,0],[0.75,0,0],[1,0,0],[0,1,0],[0.25,1,0],[0.5,1,0],[0.75,1,0],[1,1,0],[0,0.25,0],[0,0.5,0],[0,0.75,0],[1,0.25,0],[1,0.5,0],[1,0.75,0]];outlineConnect=0;fontColor=#232F3E;fillColor=#8C4FFF;strokeColor=#ffffff;dashed=0;verticalLabelPosition=bottom;verticalAlign=top;align=center;html=1;fontSize=12;fontStyle=0;aspect=fixed;shape=mxgraph.aws4.resourceIcon;resIcon=mxgraph.aws4.api_gateway;" parent="1" vertex="1">
          <mxGeometry x="140" y="1800" width="40" height="40" as="geometry" />
        </mxCell>
        <mxCell id="tn5ad1HzY3mQpz4RwJXk-117" style="edgeStyle=orthogonalEdgeStyle;rounded=0;orthogonalLoop=1;jettySize=auto;html=1;entryX=0;entryY=0.5;entryDx=0;entryDy=0;entryPerimeter=0;fontFamily=Helvetica;fontSize=12;fontColor=default;fontStyle=1;startArrow=classic;startFill=1;" parent="1" source="tn5ad1HzY3mQpz4RwJXk-101" target="tn5ad1HzY3mQpz4RwJXk-116" edge="1">
          <mxGeometry relative="1" as="geometry">
            <Array as="points">
              <mxPoint x="30" y="1820" />
            </Array>
          </mxGeometry>
        </mxCell>
        <mxCell id="tn5ad1HzY3mQpz4RwJXk-118" value="db&lt;br&gt;&lt;div&gt;Flow&lt;span style=&quot;background-color: light-dark(#ffffff, var(--ge-dark-color, #121212)); color: light-dark(rgb(0, 0, 0), rgb(255, 255, 255));&quot;&gt;RW&lt;/span&gt;&lt;/div&gt;" style="image;aspect=fixed;html=1;points=[];align=center;fontSize=12;image=img/lib/azure2/databases/Azure_Database_PostgreSQL_Server.svg;strokeColor=default;verticalAlign=middle;fontFamily=Helvetica;fontColor=default;fontStyle=1;fillColor=default;" parent="1" vertex="1">
          <mxGeometry x="880" y="1751" width="35.25" height="47" as="geometry" />
        </mxCell>
        <mxCell id="tn5ad1HzY3mQpz4RwJXk-119" style="edgeStyle=orthogonalEdgeStyle;rounded=0;orthogonalLoop=1;jettySize=auto;html=1;fontFamily=Helvetica;fontSize=12;fontColor=default;fontStyle=1;" parent="1" source="tn5ad1HzY3mQpz4RwJXk-120" target="tn5ad1HzY3mQpz4RwJXk-118" edge="1">
          <mxGeometry relative="1" as="geometry" />
        </mxCell>
        <mxCell id="tn5ad1HzY3mQpz4RwJXk-120" value="lambda&lt;div&gt;FlowTransactionPost&lt;/div&gt;" style="outlineConnect=0;dashed=0;verticalLabelPosition=bottom;verticalAlign=top;align=center;html=1;shape=mxgraph.aws3.lambda_function;fillColor=#5294CF;gradientColor=none;strokeColor=default;fontFamily=Helvetica;fontSize=12;fontColor=default;fontStyle=1;" parent="1" vertex="1">
          <mxGeometry x="620" y="1689" width="40" height="38" as="geometry" />
        </mxCell>
        <mxCell id="tn5ad1HzY3mQpz4RwJXk-121" style="edgeStyle=orthogonalEdgeStyle;rounded=0;orthogonalLoop=1;jettySize=auto;html=1;entryX=1;entryY=0.5;entryDx=0;entryDy=0;entryPerimeter=0;fontFamily=Helvetica;fontSize=12;fontColor=default;fontStyle=1;" parent="1" source="tn5ad1HzY3mQpz4RwJXk-120" target="tn5ad1HzY3mQpz4RwJXk-113" edge="1">
          <mxGeometry relative="1" as="geometry">
            <Array as="points">
              <mxPoint x="640" y="1629" />
            </Array>
          </mxGeometry>
        </mxCell>
        <mxCell id="tn5ad1HzY3mQpz4RwJXk-126" value="" style="edgeStyle=orthogonalEdgeStyle;rounded=0;orthogonalLoop=1;jettySize=auto;html=1;fontFamily=Helvetica;fontSize=12;fontColor=default;fontStyle=1;startArrow=classic;startFill=1;" parent="1" source="tn5ad1HzY3mQpz4RwJXk-103" target="tn5ad1HzY3mQpz4RwJXk-125" edge="1">
          <mxGeometry relative="1" as="geometry">
            <mxPoint x="771" y="1995" as="sourcePoint" />
            <mxPoint x="898" y="1798" as="targetPoint" />
          </mxGeometry>
        </mxCell>
        <mxCell id="tn5ad1HzY3mQpz4RwJXk-125" value="db&lt;br&gt;&lt;div&gt;FlowRO&lt;/div&gt;" style="image;aspect=fixed;html=1;points=[];align=center;fontSize=12;image=img/lib/azure2/databases/Azure_Database_PostgreSQL_Server.svg;strokeColor=default;verticalAlign=middle;fontFamily=Helvetica;fontColor=default;fontStyle=1;fillColor=default;" parent="1" vertex="1">
          <mxGeometry x="880" y="1926.5" width="35.25" height="47" as="geometry" />
        </mxCell>
        <mxCell id="hmIgIim47lBclvQkDa56-1" value="sns&lt;div&gt;Flow&lt;span style=&quot;background-color: transparent; color: light-dark(rgb(35, 47, 62), rgb(189, 199, 212));&quot;&gt;Callback&lt;/span&gt;&lt;/div&gt;" style="sketch=0;points=[[0,0,0],[0.25,0,0],[0.5,0,0],[0.75,0,0],[1,0,0],[0,1,0],[0.25,1,0],[0.5,1,0],[0.75,1,0],[1,1,0],[0,0.25,0],[0,0.5,0],[0,0.75,0],[1,0.25,0],[1,0.5,0],[1,0.75,0]];outlineConnect=0;fontColor=#232F3E;fillColor=#E7157B;strokeColor=#ffffff;dashed=0;verticalLabelPosition=bottom;verticalAlign=top;align=center;html=1;fontSize=12;fontStyle=0;aspect=fixed;shape=mxgraph.aws4.resourceIcon;resIcon=mxgraph.aws4.sns;fontFamily=Helvetica;" parent="1" vertex="1">
          <mxGeometry x="900" y="146" width="38" height="38" as="geometry" />
        </mxCell>
        <mxCell id="hmIgIim47lBclvQkDa56-2" style="edgeStyle=orthogonalEdgeStyle;rounded=0;orthogonalLoop=1;jettySize=auto;html=1;" parent="1" source="tn5ad1HzY3mQpz4RwJXk-16" target="hmIgIim47lBclvQkDa56-1" edge="1">
          <mxGeometry relative="1" as="geometry" />
        </mxCell>
        <mxCell id="hmIgIim47lBclvQkDa56-3" value="sns&lt;div&gt;Flow&lt;span style=&quot;background-color: transparent; color: light-dark(rgb(35, 47, 62), rgb(189, 199, 212));&quot;&gt;Callback&lt;/span&gt;&lt;/div&gt;" style="sketch=0;points=[[0,0,0],[0.25,0,0],[0.5,0,0],[0.75,0,0],[1,0,0],[0,1,0],[0.25,1,0],[0.5,1,0],[0.75,1,0],[1,1,0],[0,0.25,0],[0,0.5,0],[0,0.75,0],[1,0.25,0],[1,0.5,0],[1,0.75,0]];outlineConnect=0;fontColor=#232F3E;fillColor=#E7157B;strokeColor=#ffffff;dashed=0;verticalLabelPosition=bottom;verticalAlign=top;align=center;html=1;fontSize=12;fontStyle=0;aspect=fixed;shape=mxgraph.aws4.resourceIcon;resIcon=mxgraph.aws4.sns;fontFamily=Helvetica;" parent="1" vertex="1">
          <mxGeometry x="890" y="729" width="38" height="38" as="geometry" />
        </mxCell>
        <mxCell id="hmIgIim47lBclvQkDa56-5" style="edgeStyle=orthogonalEdgeStyle;rounded=0;orthogonalLoop=1;jettySize=auto;html=1;entryX=0;entryY=0.5;entryDx=0;entryDy=0;entryPerimeter=0;" parent="1" source="tn5ad1HzY3mQpz4RwJXk-69" target="hmIgIim47lBclvQkDa56-3" edge="1">
          <mxGeometry relative="1" as="geometry">
            <Array as="points">
              <mxPoint x="670" y="748" />
            </Array>
          </mxGeometry>
        </mxCell>
        <mxCell id="hmIgIim47lBclvQkDa56-6" value="sns&lt;div&gt;Flow&lt;span style=&quot;background-color: transparent; color: light-dark(rgb(35, 47, 62), rgb(189, 199, 212));&quot;&gt;Callback&lt;/span&gt;&lt;/div&gt;" style="sketch=0;points=[[0,0,0],[0.25,0,0],[0.5,0,0],[0.75,0,0],[1,0,0],[0,1,0],[0.25,1,0],[0.5,1,0],[0.75,1,0],[1,1,0],[0,0.25,0],[0,0.5,0],[0,0.75,0],[1,0.25,0],[1,0.5,0],[1,0.75,0]];outlineConnect=0;fontColor=#232F3E;fillColor=#E7157B;strokeColor=#ffffff;dashed=0;verticalLabelPosition=bottom;verticalAlign=top;align=center;html=1;fontSize=12;fontStyle=0;aspect=fixed;shape=mxgraph.aws4.resourceIcon;resIcon=mxgraph.aws4.sns;fontFamily=Helvetica;" parent="1" vertex="1">
          <mxGeometry x="878.63" y="1610" width="38" height="38" as="geometry" />
        </mxCell>
        <mxCell id="hmIgIim47lBclvQkDa56-7" style="edgeStyle=orthogonalEdgeStyle;rounded=0;orthogonalLoop=1;jettySize=auto;html=1;entryX=0;entryY=0.5;entryDx=0;entryDy=0;entryPerimeter=0;" parent="1" source="tn5ad1HzY3mQpz4RwJXk-120" target="hmIgIim47lBclvQkDa56-6" edge="1">
          <mxGeometry relative="1" as="geometry">
            <Array as="points">
              <mxPoint x="650" y="1630" />
              <mxPoint x="769" y="1630" />
              <mxPoint x="769" y="1629" />
            </Array>
          </mxGeometry>
        </mxCell>
        <mxCell id="JQjuP2HkVZw_Cns2tLrs-2" style="edgeStyle=orthogonalEdgeStyle;rounded=0;orthogonalLoop=1;jettySize=auto;html=1;endArrow=classic;endFill=1;startArrow=classic;startFill=1;" parent="1" source="JQjuP2HkVZw_Cns2tLrs-1" target="tn5ad1HzY3mQpz4RwJXk-40" edge="1">
          <mxGeometry relative="1" as="geometry">
            <Array as="points">
              <mxPoint x="190" y="335" />
            </Array>
          </mxGeometry>
        </mxCell>
      </root>
    </mxGraphModel>
  </diagram>
</mxfile>
